<svg width="512" height="512" viewBox="0 0 512 512" fill="none" xmlns="http://www.w3.org/2000/svg">
<g clip-path="url(#clip0_3229_4)">
<path d="M288.001 192H305.101C327.201 230.3 368.601 256 416.001 256C427.001 256 437.801 254.6 448.001 252V256V288V480C448.001 497.7 433.701 512 416.001 512C398.301 512 384.001 497.7 384.001 480V339.2L248.001 448H304.001C321.701 448 336.001 462.3 336.001 480C336.001 497.7 321.701 512 304.001 512H160.001C107.001 512 64.0005 469 64.0005 416V192.5C64.0005 176.4 52.0005 162.7 36.0005 160.7L28.1005 159.7C10.5005 157.6 -1.89949 141.6 0.200514 124C2.30051 106.4 18.4005 94 35.9005 96.2L43.8005 97.2C91.8005 103.2 127.901 144 127.901 192.5V277.8C162.301 226.1 221.101 192 287.901 192H288.001ZM448.001 218.5C438.001 222 427.201 224 416.001 224C387.601 224 362.001 211.6 344.401 192C340.701 187.9 337.401 183.5 334.501 178.8C325.301 164 320.001 146.6 320.001 128V32V12V10.7C320.001 4.8 324.701 0.1 330.601 0H330.801C334.101 0 337.201 1.6 339.201 4.2V4.3L352.001 21.3L379.201 57.6L384.001 64H448.001L452.801 57.6L480.001 21.3L492.801 4.3V4.2C494.801 1.6 497.901 0 501.201 0H501.401C507.301 0.1 512 4.8 512 10.7V12V32V128C512 145.3 507.401 161.6 499.401 175.6C488.101 195.4 469.801 210.8 448.001 218.5ZM400.001 128C400.001 119.2 392.801 112 384.001 112C375.201 112 368.001 119.2 368.001 128C368.001 136.8 375.201 144 384.001 144C392.801 144 400.001 136.8 400.001 128ZM448.001 144C456.801 144 464.001 136.8 464.001 128C464.001 119.2 456.801 112 448.001 112C439.201 112 432.001 119.2 432.001 128C432.001 136.8 439.201 144 448.001 144Z" fill="#F5A63C"/>
</g>
<defs>
<clipPath id="clip0_3229_4">
<rect width="512" height="512" fill="white"/>
</clipPath>
</defs>
</svg>
